<svg xmlns="http://www.w3.org/2000/svg" viewBox="0 0 74.45 70.91"><defs><style>.cls-1{fill:#fff;}</style></defs><title>Asset 220</title><g fill="#fff" id="Layer_2" data-name="Layer 2"><g id="Layer_1-2" data-name="Layer 1"><path class="cls-1" d="M37.1,39.79A19.9,19.9,0,1,0,17.18,19.87,19.93,19.93,0,0,0,37.1,39.79Zm0-34.6A14.67,14.67,0,1,1,22.43,19.87,14.71,14.71,0,0,1,37.1,5.2Zm0,0"/><path class="cls-1" d="M2.63,70.91h69.2a2.61,2.61,0,0,0,2.63-2.63,25,25,0,0,0-25-25H25a25,25,0,0,0-25,25,2.61,2.61,0,0,0,2.63,2.63ZM25,48.54H49.45A19.73,19.73,0,0,1,69,65.65H5.44A19.78,19.78,0,0,1,25,48.54Zm0,0"/></g></g></svg>