<svg xmlns="http://www.w3.org/2000/svg" viewBox="0 0 72.71 72.71"><defs><style>.cls-1{fill:#fff;}</style></defs><title>Asset 210</title><g fill="#fff" id="Layer_2" data-name="Layer 2"><g id="Layer_1-2" data-name="Layer 1"><path class="cls-1" d="M69,28.72l-5.1-.87a28.8,28.8,0,0,0-2.05-5l3-4.21a4.48,4.48,0,0,0-.49-5.79L59.83,8.38a4.46,4.46,0,0,0-5.77-.49l-4.22,3A28.46,28.46,0,0,0,44.7,8.79l-.85-5A4.49,4.49,0,0,0,39.41,0H33a4.49,4.49,0,0,0-4.44,3.75L27.7,8.92A28.11,28.11,0,0,0,22.77,11L18.59,8a4.48,4.48,0,0,0-5.79.49L8.26,13a4.5,4.5,0,0,0-.49,5.79l3,4.27a28.17,28.17,0,0,0-2,5l-5,.85A4.49,4.49,0,0,0,0,33.31V39.7a4.49,4.49,0,0,0,3.75,4.43L8.92,45A28.14,28.14,0,0,0,11,50L8,54.12a4.48,4.48,0,0,0,.49,5.79L13,64.43a4.46,4.46,0,0,0,3.17,1.32,4.41,4.41,0,0,0,2.6-.84l4.27-3a28.72,28.72,0,0,0,4.8,2l.85,5.1a4.49,4.49,0,0,0,4.43,3.75h6.41A4.49,4.49,0,0,0,44,69l.87-5.1a28.84,28.84,0,0,0,5-2.05l4.21,3a4.49,4.49,0,0,0,5.79-.49l4.53-4.53A4.5,4.5,0,0,0,64.81,54l-3-4.22a28.63,28.63,0,0,0,2.05-5L69,44a4.49,4.49,0,0,0,3.75-4.43V33.16A4.43,4.43,0,0,0,69,28.72Zm-.35,10.83a.39.39,0,0,1-.33.39L61.92,41a2,2,0,0,0-1.64,1.5,24.32,24.32,0,0,1-2.64,6.36,2.05,2.05,0,0,0,.09,2.23l3.75,5.29a.41.41,0,0,1,0,.52l-4.53,4.53a.38.38,0,0,1-.29.12.37.37,0,0,1-.23-.08l-5.27-3.75a2.05,2.05,0,0,0-2.23-.09,24.32,24.32,0,0,1-6.36,2.64A2,2,0,0,0,41,61.92L39.94,68.3a.39.39,0,0,1-.39.33H33.16a.39.39,0,0,1-.4-.33L31.7,61.92a2,2,0,0,0-1.5-1.64A25.21,25.21,0,0,1,24,57.73a2.11,2.11,0,0,0-1-.27,2,2,0,0,0-1.19.38l-5.32,3.78a.46.46,0,0,1-.23.08.41.41,0,0,1-.29-.12L11.39,57a.41.41,0,0,1,0-.52l3.74-5.24A2.08,2.08,0,0,0,15.17,49a24,24,0,0,1-2.67-6.35,2.08,2.08,0,0,0-1.64-1.5L4.43,40.1a.39.39,0,0,1-.33-.39V33.31a.39.39,0,0,1,.33-.39l6.33-1.06a2.06,2.06,0,0,0,1.66-1.52A24.25,24.25,0,0,1,15,24a2,2,0,0,0-.11-2.22l-3.78-5.32a.41.41,0,0,1,0-.52l4.53-4.53a.39.39,0,0,1,.29-.12.38.38,0,0,1,.23.08l5.24,3.74a2.08,2.08,0,0,0,2.25.09,24.05,24.05,0,0,1,6.35-2.67,2.08,2.08,0,0,0,1.5-1.64l1.09-6.42A.39.39,0,0,1,33,4.09h6.39a.39.39,0,0,1,.4.33l1.06,6.33a2.05,2.05,0,0,0,1.52,1.66,24.62,24.62,0,0,1,6.51,2.67A2.06,2.06,0,0,0,51.17,15l5.24-3.77a.45.45,0,0,1,.23-.08.41.41,0,0,1,.29.12l4.53,4.53a.41.41,0,0,1,0,.52l-3.75,5.27a2.05,2.05,0,0,0-.09,2.23,24.31,24.31,0,0,1,2.64,6.36,2,2,0,0,0,1.64,1.5l6.38,1.08a.39.39,0,0,1,.33.39v6.39Zm0,0"/><path class="cls-1" d="M36.36,20.66A15.69,15.69,0,1,0,52,36.35,15.7,15.7,0,0,0,36.36,20.66Zm0,27.28A11.59,11.59,0,1,1,47.95,36.35,11.6,11.6,0,0,1,36.36,47.93Zm0,0"/></g></g></svg>