<svg xmlns="http://www.w3.org/2000/svg" viewBox="0 0 71.82 76.19"><defs><style>.cls-1{fill:#fff;}</style></defs><title>Asset 190</title><g fill="#fff" id="Layer_2" data-name="Layer 2"><g id="Layer_1-2" data-name="Layer 1"><path class="cls-1" d="M58.19,48.95A13.63,13.63,0,0,0,47.4,54.26L26.47,42.57a13.67,13.67,0,0,0,.76-4.49,13.38,13.38,0,0,0-.78-4.51L47.36,21.9a13.61,13.61,0,1,0-2.82-8.27,13.28,13.28,0,0,0,.78,4.51L24.43,29.81a13.61,13.61,0,1,0,0,16.53L45.37,58a13.61,13.61,0,1,0,12.81-9.08Zm0-44.66a9.35,9.35,0,1,1-9.35,9.35,9.36,9.36,0,0,1,9.35-9.35ZM13.64,47.43A9.35,9.35,0,1,1,23,38.08a9.36,9.36,0,0,1-9.35,9.35ZM58.19,71.9a9.35,9.35,0,1,1,9.35-9.35,9.36,9.36,0,0,1-9.35,9.35Zm0,0"/></g></g></svg>